<?xml version="1.0" encoding="utf-8"?>
<!-- Generator: Adobe Illustrator 19.1.0, SVG Export Plug-In . SVG Version: 6.00 Build 0)  -->
<!DOCTYPE svg PUBLIC "-//W3C//DTD SVG 1.1//EN" "http://www.w3.org/Graphics/SVG/1.1/DTD/svg11.dtd">
<svg version="1.1" id="Layer_1" xmlns="http://www.w3.org/2000/svg" xmlns:xlink="http://www.w3.org/1999/xlink" x="0px" y="0px"
	 viewBox="0 0 71.5 36" style="enable-background:new 0 0 71.5 36;" xml:space="preserve">
<g>
	<path d="M12,15.7c0.4,0,0.7,0.3,0.7,0.7v3.2c0,0.4-0.3,0.7-0.7,0.7H3.1c-0.4,0-0.7-0.3-0.7-0.7v-3.2c0-0.4,0.3-0.7,0.7-0.7H12z"/>
	<path d="M30.6,27.8c0,3.4-2.8,5.8-6.2,5.8c-3.4,0-6.2-2.5-6.2-5.9c0-0.4,0.3-0.7,0.7-0.7h2.9c0.4,0,0.7,0.3,0.7,0.7
		c0,1.1,0.9,1.7,2,1.7c1.1,0,2-0.6,2-1.7V15c0-0.2-0.1-0.3-0.3-0.3h-3.9c-0.4,0-0.7-0.3-0.7-0.7v-2.9c0-0.4,0.3-0.7,0.7-0.7h8
		c0.3,0,0.5,0.3,0.5,0.5V27.8z M30.8,4.1c0-0.3-0.2-0.5-0.5-0.5h-3.5c-0.3,0-0.5,0.3-0.5,0.5v3.5c0,0.3,0.2,0.5,0.5,0.5h3.5
		c0.3,0,0.5-0.2,0.5-0.5V4.1z"/>
	<path d="M38.4,14.6c-0.4,0-0.7-0.3-0.7-0.7v-2.8c0-0.4,0.3-0.7,0.7-0.7h7.3c0.3,0,0.5,0.3,0.5,0.5v11.2c0,0.2,0.1,0.3,0.3,0.3h3.6
		c0.4,0,0.7,0.3,0.7,0.7v2.9c0,0.4-0.3,0.7-0.7,0.7H38.1c-0.4,0-0.7-0.3-0.7-0.7v-2.9c0-0.4,0.3-0.7,0.7-0.7h3.6
		c0.2,0,0.3-0.1,0.3-0.3v-7.3c0-0.2-0.1-0.3-0.3-0.3H38.4z M46.4,7.6c0,0.3-0.2,0.5-0.5,0.5h-3.5c-0.3,0-0.5-0.2-0.5-0.5V4.1
		c0-0.3,0.2-0.5,0.5-0.5h3.5c0.3,0,0.5,0.3,0.5,0.5V7.6z"/>
	<path d="M59.2,15c0,0.6-0.3,0.6-0.9,0.6H56c-0.4,0-0.7-0.3-0.7-0.7c0-2.6,2.4-4.9,6.3-4.9c3.9,0,6.5,2.1,6.5,5.9v10.1
		c0,0.4-0.3,0.7-0.7,0.7h-1.6c-0.2,0-0.3-0.1-0.5-0.2c-0.2-0.3-0.2-0.7-0.7-0.7c-0.6,0-1.5,1.2-3.9,1.2c-3.8,0-6.1-2-6.1-5.4
		c0-2.3,1.9-5.1,5.6-5.1h3.3c0.2,0,0.3-0.1,0.3-0.3v-0.5c0-1.3-1.1-2-2.5-2C60.8,13.8,59.2,14,59.2,15z M60.3,20.1
		c-1.4,0-1.7,1.1-1.7,1.6c0,1.2,1,1.7,2.2,1.7c1.9,0,3.3-0.6,3.3-2.3v-0.8c0-0.2-0.1-0.3-0.3-0.3H60.3z"/>
</g>
</svg>
